<?xml version="1.0" ?><svg viewBox="0 0 32 32" xmlns="http://www.w3.org/2000/svg"><title/><g data-name="Layer 12" id="Layer_12"><path d="M9,14a2,2,0,1,1,2-2A2,2,0,0,1,9,14Zm0-2H9Zm0,0H9Zm0,0H9Zm0,0H9Zm0,0H9Zm0,0H9Zm0,0H9Zm0,0H9Z"/><rect height="7" rx="1" ry="1" width="8" x="5" y="15"/><path d="M26,13H17a1,1,0,0,1,0-2h9a1,1,0,0,1,0,2Z"/><path d="M26,17H17a1,1,0,0,1,0-2h9a1,1,0,0,1,0,2Z"/><path d="M26,21H17a1,1,0,0,1,0-2h9a1,1,0,0,1,0,2Z"/><path d="M25,26H7a5,5,0,0,1-5-5V11A5,5,0,0,1,7,6H25a5,5,0,0,1,5,5V21A5,5,0,0,1,25,26ZM7,8a3,3,0,0,0-3,3V21a3,3,0,0,0,3,3H25a3,3,0,0,0,3-3V11a3,3,0,0,0-3-3Z"/><path d="M5,21V11c0-2.21,3-3,5.19-3L7,7a4,4,0,0,0-4,4V21a4,4,0,0,0,4,4l3.19-1C8,24,5,23.21,5,21Z"/></g></svg>